<?xml version="1.0" encoding="utf-8"?>
<!-- Generator: Adobe Illustrator 22.0.1, SVG Export Plug-In . SVG Version: 6.00 Build 0)  -->
<svg version="1.1" id="Layer_1" xmlns="http://www.w3.org/2000/svg" xmlns:xlink="http://www.w3.org/1999/xlink" x="0px" y="0px"
	 width="171px" height="60.8px" viewBox="0 0 171 60.8" enable-background="new 0 0 171 60.8" xml:space="preserve">
<path fill="#FFFFFF" d="M34.1,22.9c0,8.3-6.7,15-15,15c-8.3,0-15.1-6.7-15.1-15C4,14.6,10.7,7.8,19,7.8
	C27.3,7.8,34.1,14.6,34.1,22.9z"/>
<g>
	<path fill="#60A3D2" d="M17.9,4.2C8,4.3,0.1,12.5,0.2,22.4C0.4,32.3,8.5,40.2,18.4,40c9.9-0.1,17.8-8.3,17.7-18.2
		C35.9,12,27.8,4,17.9,4.2 M21.3,27.2l-4.6,8.3l-5.3-24l19.4,15.2L21.3,27.2z"/>
</g>
<g>
	<path fill="#FFFFFF" d="M59.2,19.1v-7.9c0-1-0.5-1.7-1.7-1.7c-1.1,0-1.9,0.7-2.3,1.2v8.4h-4.1v-7.9c0-1-0.5-1.7-1.7-1.7
		c-1.1,0-1.9,0.7-2.3,1.2v8.4H43V6.2h4.1v1.6c0.6-0.7,2.2-1.9,4.2-1.9c1.9,0,3.1,0.8,3.7,2.3c0.7-1.1,2.4-2.3,4.5-2.3
		c2.4,0,3.9,1.2,3.9,3.9v9.4L59.2,19.1L59.2,19.1z"/>
	<path fill="#FFFFFF" d="M74.3,19.1v-1.5c-1.1,1.2-2.4,1.8-3.8,1.8c-3.2,0-5.7-2.4-5.7-6.8c0-4.2,2.5-6.8,5.7-6.8
		c1.4,0,2.8,0.6,3.8,1.8V6.2h4.1v12.9C78.4,19.1,74.3,19.1,74.3,19.1z M74.3,14.6v-3.9c-0.5-0.7-1.6-1.2-2.5-1.2
		c-1.6,0-2.8,1.2-2.8,3.1c0,1.9,1.2,3.2,2.8,3.2C72.7,15.8,73.8,15.3,74.3,14.6"/>
	<path fill="#FFFFFF" d="M84.9,17.6V24h-4.1V6.2h4.1v1.5c1-1.2,2.3-1.8,3.8-1.8c3.2,0,5.7,2.4,5.7,6.8c0,4.4-2.4,6.8-5.7,6.8
		C87.3,19.4,85.9,18.8,84.9,17.6 M90.2,12.6c0-1.9-1.2-3.1-2.8-3.1c-0.9,0-2,0.5-2.5,1.2v3.9c0.5,0.7,1.6,1.2,2.5,1.2
		C88.9,15.8,90.2,14.6,90.2,12.6"/>
	<path fill="#FFFFFF" d="M95.5,2.6c0-1.3,1-2.4,2.4-2.4s2.4,1.1,2.4,2.4c0,1.3-1.1,2.4-2.4,2.4S95.5,4,95.5,2.6 M95.8,6.2h4.1v12.9
		h-4.1V6.2z"/>
	<polygon fill="#FFFFFF" points="110.1,19.1 107.7,15.2 105.1,19.1 100.6,19.1 105,12.5 100.9,6.2 105.4,6.2 107.6,9.7 109.8,6.2 
		114.3,6.2 110.2,12.5 114.6,19.1 	"/>
	<path fill="#FFFFFF" d="M43.7,36.3v-8.4h-2v-1.1h2v-3.2H45v3.2h2.4v1.1H45v8.2c0,1,0.4,1.6,1.2,1.6c0.6,0,1-0.3,1.3-0.6l0.5,1
		c-0.5,0.4-1,0.7-2,0.7C44.4,38.8,43.7,37.9,43.7,36.3"/>
	<path fill="#FFFFFF" d="M48.9,32.6c0-3.4,2.4-6.1,5.6-6.1c3.6,0,5.5,2.8,5.5,6.2v0.3h-9.8c0.1,2.5,1.8,4.7,4.6,4.7
		c1.5,0,2.8-0.6,3.8-1.6l0.7,0.8c-1.2,1.2-2.6,1.9-4.6,1.9C51.3,38.8,48.9,36.3,48.9,32.6 M54.5,27.6c-2.8,0-4.2,2.4-4.3,4.5h8.5
		C58.7,30.1,57.4,27.6,54.5,27.6"/>
	<path fill="#FFFFFF" d="M62,32.6c0-3.4,2.2-6.1,5.7-6.1c2,0,3.2,0.8,4.2,2L71,29.3c-0.8-1.2-1.9-1.6-3.2-1.6c-2.7,0-4.4,2.2-4.4,5
		c0,2.8,1.7,5,4.4,5c1.3,0,2.4-0.5,3.2-1.7l0.9,0.8c-0.9,1.2-2.1,2-4.2,2C64.3,38.8,62,36.1,62,32.6"/>
	<path fill="#FFFFFF" d="M82,38.5v-8c0-2.3-1.1-2.9-2.8-2.9c-1.5,0-3.1,1-3.8,2v8.9h-1.3V22.3h1.3v6.3c0.9-1,2.5-2.1,4.2-2.1
		c2.4,0,3.7,1.1,3.7,3.8v8.3H82z"/>
	<path fill="#FFFFFF" d="M94.5,38.5v-7.9c0-2.3-1.1-2.9-2.8-2.9c-1.5,0-3.1,1-3.8,2v8.9h-1.3V26.8h1.3v1.8c0.8-1,2.5-2.1,4.2-2.1
		c2.4,0,3.7,1.2,3.7,3.8v8.2H94.5z"/>
	<path fill="#FFFFFF" d="M98.5,32.6c0-3.4,2.2-6.1,5.6-6.1c3.5,0,5.7,2.7,5.7,6.1c0,3.4-2.2,6.2-5.7,6.2
		C100.7,38.8,98.5,36.1,98.5,32.6 M108.4,32.6c0-2.6-1.5-5-4.3-5c-2.7,0-4.3,2.4-4.3,5c0,2.6,1.6,5,4.3,5
		C106.9,37.7,108.4,35.3,108.4,32.6"/>
	<path fill="#FFFFFF" d="M112.4,36.3V22.3h1.3v13.8c0,1,0.4,1.6,1.2,1.6c0.6,0,1-0.3,1.3-0.6l0.5,1c-0.5,0.4-1,0.7-2,0.7
		C113.2,38.8,112.4,37.9,112.4,36.3"/>
	<path fill="#FFFFFF" d="M117.4,32.6c0-3.4,2.2-6.1,5.6-6.1c3.5,0,5.7,2.7,5.7,6.1c0,3.4-2.2,6.2-5.7,6.2
		C119.6,38.8,117.4,36.1,117.4,32.6 M127.3,32.6c0-2.6-1.5-5-4.3-5c-2.7,0-4.3,2.4-4.3,5c0,2.6,1.6,5,4.3,5
		C125.7,37.7,127.3,35.3,127.3,32.6"/>
	<path fill="#FFFFFF" d="M131.3,41.5l0.7-1c1,1.2,2.1,1.7,3.9,1.7c2.1,0,4-1.1,4-3.7v-1.9c-0.8,1.2-2.3,2.2-4.1,2.2
		c-3.1,0-5.2-2.4-5.2-6.1c0-3.7,2.1-6.1,5.2-6.1c1.7,0,3.1,0.9,4.1,2.2v-1.9h1.3v11.6c0,3.6-2.4,4.9-5.3,4.9
		C134,43.3,132.7,42.9,131.3,41.5 M139.9,35.5v-5.7c-0.7-1.1-2.2-2.1-3.9-2.1c-2.6,0-4.1,2.2-4.1,5c0,2.9,1.5,5,4.1,5
		C137.7,37.6,139.3,36.6,139.9,35.5"/>
	<path fill="#FFFFFF" d="M144.2,24c0-0.5,0.5-0.9,1-0.9c0.5,0,1,0.4,1,0.9s-0.4,1-1,1C144.7,24.9,144.2,24.5,144.2,24 M144.5,26.8
		h1.3v11.7h-1.3V26.8z"/>
	<path fill="#FFFFFF" d="M148.5,32.6c0-3.4,2.4-6.1,5.6-6.1c3.6,0,5.5,2.8,5.5,6.2v0.3h-9.8c0.1,2.5,1.8,4.7,4.6,4.7
		c1.5,0,2.8-0.6,3.8-1.6l0.7,0.8c-1.2,1.2-2.6,1.9-4.6,1.9C150.9,38.8,148.5,36.3,148.5,32.6 M154.1,27.6c-2.8,0-4.2,2.4-4.3,4.5
		h8.5C158.3,30.1,157,27.6,154.1,27.6"/>
	<path fill="#FFFFFF" d="M161.3,36.9L162,36c0.8,1,2.1,1.7,3.8,1.7c2,0,3.1-1,3.1-2.4c0-3.2-7.4-1.4-7.4-5.6c0-1.8,1.5-3.3,4.2-3.3
		c2,0,3.4,0.8,4.2,1.7l-0.7,0.9c-0.7-0.9-1.9-1.5-3.5-1.5c-1.8,0-2.9,0.9-2.9,2.1c0,2.9,7.4,1.1,7.4,5.7c0,1.9-1.5,3.5-4.4,3.5
		C163.9,38.8,162.5,38.3,161.3,36.9"/>
</g>
<g>
	<g>
		<g>
			<path fill="#FFFFFF" d="M4.4,49.1H5l3,7.1l3-7.1h0.6l-3.3,7.6H7.7L4.4,49.1z"/>
			<path fill="#FFFFFF" d="M12.8,47.3c0-0.3,0.2-0.5,0.5-0.5c0.3,0,0.5,0.2,0.5,0.5c0,0.3-0.2,0.5-0.5,0.5
				C13,47.7,12.8,47.5,12.8,47.3z M13,49.1h0.5v7.6H13V49.1z"/>
			<path fill="#FFFFFF" d="M19.2,48.9c2.3,0,3.5,1.9,3.5,4V53h-6.6c0,1.9,1.3,3.4,3.2,3.4c1.1,0,1.9-0.4,2.7-1.2l0.3,0.3
				c-0.8,0.8-1.7,1.3-2.9,1.3c-2.2,0-3.7-1.7-3.7-4C15.6,50.6,17.2,48.9,19.2,48.9z M16.2,52.6h6.1c0-1.5-1-3.3-3-3.3
				C17.2,49.3,16.2,51.1,16.2,52.6z"/>
			<path fill="#FFFFFF" d="M29,49.8l-2.3,6.9h-0.4l-2.5-7.6h0.5l2.2,6.9l2.3-6.9h0.4l2.3,6.9l2.2-6.9h0.5l-2.5,7.6h-0.4L29,49.8z"/>
			<path fill="#FFFFFF" d="M39.5,55.3v-5.9h-1.3v-0.4h1.3V47H40v2.1h1.5v0.4H40v5.9c0,0.6,0.3,1.1,0.8,1.1c0.4,0,0.7-0.2,0.9-0.4
				l0.3,0.4c-0.3,0.3-0.6,0.5-1.2,0.5C39.9,56.9,39.5,56.3,39.5,55.3z"/>
			<path fill="#FFFFFF" d="M48.6,51.3c0-1.6-0.8-2-2-2c-1,0-2.2,0.7-2.7,1.4v6h-0.5V46.1h0.5v4.1c0.6-0.7,1.7-1.4,2.8-1.4
				c1.5,0,2.4,0.7,2.4,2.5v5.4h-0.5V51.3z"/>
			<path fill="#FFFFFF" d="M54.7,48.9c2.3,0,3.5,1.9,3.5,4V53h-6.6c0,1.9,1.3,3.4,3.2,3.4c1.1,0,1.9-0.4,2.7-1.2l0.3,0.3
				c-0.8,0.8-1.7,1.3-2.9,1.3c-2.2,0-3.7-1.7-3.7-4C51.1,50.6,52.7,48.9,54.7,48.9z M51.7,52.6h6.1c0-1.5-1-3.3-3-3.3
				C52.7,49.3,51.7,51.1,51.7,52.6z"/>
			<path fill="#FFFFFF" d="M68.2,49.8l-2.3,6.9h-0.4L63,49.1h0.5l2.2,6.9l2.3-6.9h0.4l2.3,6.9l2.2-6.9h0.5l-2.5,7.6h-0.4L68.2,49.8z
				"/>
			<path fill="#FFFFFF" d="M74.5,52.9c0-2.2,1.4-4,3.6-4c2.2,0,3.6,1.8,3.6,4c0,2.2-1.4,4-3.6,4C76,56.9,74.5,55.1,74.5,52.9z
				 M81.1,52.9c0-1.8-1.1-3.6-3-3.6c-1.9,0-3,1.7-3,3.6c0,1.9,1.1,3.6,3,3.6C80.1,56.4,81.1,54.7,81.1,52.9z"/>
			<path fill="#FFFFFF" d="M83.9,49.1h0.5v1.4c0.7-0.9,1.5-1.5,2.6-1.5v0.6c-0.1,0-0.2,0-0.4,0c-0.8,0-1.9,0.8-2.2,1.5v5.7h-0.5
				V49.1z"/>
			<path fill="#FFFFFF" d="M88.6,46.1H89v10.5h-0.5V46.1z"/>
			<path fill="#FFFFFF" d="M97.7,55.4c-0.5,0.8-1.5,1.5-2.7,1.5c-2.1,0-3.4-1.6-3.4-4c0-2.4,1.4-4,3.4-4c1.1,0,2.1,0.6,2.7,1.5v-4.2
				h0.5v10.5h-0.5V55.4z M97.7,50.8c-0.5-0.8-1.6-1.5-2.7-1.5c-1.9,0-2.9,1.6-2.9,3.6c0,2,1,3.6,2.9,3.6c1.2,0,2.3-0.7,2.7-1.5V50.8
				z"/>
			<path fill="#FFFFFF" d="M110.4,55.4c-0.5,0.8-1.5,1.5-2.7,1.5c-2.1,0-3.4-1.6-3.4-4c0-2.4,1.4-4,3.4-4c1.1,0,2.1,0.6,2.7,1.5
				v-4.2h0.5v10.5h-0.5V55.4z M110.4,50.8c-0.5-0.8-1.6-1.5-2.7-1.5c-1.9,0-2.9,1.6-2.9,3.6c0,2,1,3.6,2.9,3.6
				c1.2,0,2.3-0.7,2.7-1.5V50.8z"/>
			<path fill="#FFFFFF" d="M113.4,47.3c0-0.3,0.2-0.5,0.5-0.5c0.3,0,0.5,0.2,0.5,0.5c0,0.3-0.2,0.5-0.5,0.5
				C113.6,47.7,113.4,47.5,113.4,47.3z M113.6,49.1h0.5v7.6h-0.5V49.1z"/>
			<path fill="#FFFFFF" d="M117.4,49.5h-1.3v-0.4h1.3v-0.8c0-1.4,0.7-2.3,1.9-2.3c0.3,0,0.6,0,0.9,0.2l-0.2,0.4
				c-0.2-0.1-0.4-0.2-0.7-0.2c-1,0-1.4,0.7-1.4,1.8v0.8h1.5v0.4h-1.5v7.2h-0.5V49.5z M121.3,49.5h-1.3v-0.4h1.3v-0.8
				c0-1.4,0.7-2.3,1.9-2.3c0.3,0,0.6,0,0.9,0.2l-0.2,0.4c-0.2-0.1-0.4-0.2-0.7-0.2c-1,0-1.4,0.7-1.4,1.8v0.8h1.5v0.4h-1.5v7.2h-0.5
				V49.5z"/>
			<path fill="#FFFFFF" d="M128.2,48.9c2.3,0,3.5,1.9,3.5,4V53h-6.6c0,1.9,1.3,3.4,3.2,3.4c1.1,0,1.9-0.4,2.7-1.2l0.3,0.3
				c-0.8,0.8-1.7,1.3-2.9,1.3c-2.2,0-3.7-1.7-3.7-4C124.6,50.6,126.1,48.9,128.2,48.9z M125.2,52.6h6.1c0-1.5-1-3.3-3-3.3
				C126.2,49.3,125.2,51.1,125.2,52.6z"/>
			<path fill="#FFFFFF" d="M134,49.1h0.5v1.4c0.7-0.9,1.5-1.5,2.6-1.5v0.6c-0.1,0-0.2,0-0.4,0c-0.8,0-1.9,0.8-2.2,1.5v5.7H134V49.1z
				"/>
			<path fill="#FFFFFF" d="M141.7,48.9c2.3,0,3.5,1.9,3.5,4V53h-6.6c0,1.9,1.3,3.4,3.2,3.4c1.1,0,1.9-0.4,2.7-1.2l0.3,0.3
				c-0.8,0.8-1.7,1.3-2.9,1.3c-2.2,0-3.7-1.7-3.7-4C138.1,50.6,139.7,48.9,141.7,48.9z M138.7,52.6h6.1c0-1.5-1-3.3-3-3.3
				C139.7,49.3,138.7,51.1,138.7,52.6z"/>
			<path fill="#FFFFFF" d="M152.5,51.4c0-1.6-0.8-2.1-2-2.1c-1,0-2.2,0.7-2.7,1.4v6h-0.5v-7.6h0.5v1.2c0.6-0.7,1.7-1.4,2.8-1.4
				c1.5,0,2.4,0.7,2.4,2.5v5.3h-0.5V51.4z"/>
			<path fill="#FFFFFF" d="M156.3,55.3v-5.9h-1.3v-0.4h1.3V47h0.5v2.1h1.5v0.4h-1.5v5.9c0,0.6,0.3,1.1,0.8,1.1
				c0.4,0,0.7-0.2,0.9-0.4l0.3,0.4c-0.3,0.3-0.6,0.5-1.2,0.5C156.8,56.9,156.3,56.3,156.3,55.3z"/>
			<path fill="#FFFFFF" d="M160.7,46.1h0.5v10.5h-0.5V46.1z"/>
			<path fill="#FFFFFF" d="M164.7,59.3c0.5,0,0.9-0.2,1.2-1l0.7-1.6l-3.3-7.7h0.6l3,7.1l3-7.1h0.6l-4,9.4c-0.4,0.8-0.9,1.3-1.7,1.3
				c-0.3,0-0.6,0-0.8-0.1l0.1-0.4C164.2,59.3,164.5,59.3,164.7,59.3z"/>
		</g>
	</g>
</g>
</svg>
