<?xml version="1.0" encoding="utf-8"?>
<!-- Generator: Adobe Illustrator 22.0.1, SVG Export Plug-In . SVG Version: 6.00 Build 0)  -->
<svg version="1.1" id="Layer_1" xmlns="http://www.w3.org/2000/svg" xmlns:xlink="http://www.w3.org/1999/xlink" x="0px" y="0px"
	 width="344.3px" height="126.2px" viewBox="0 0 344.3 126.2" style="enable-background:new 0 0 344.3 126.2;" xml:space="preserve"
	>
<style type="text/css">
	.st0{fill:#143A84;}
	.st1{fill:#5DA2D7;}
</style>
<g>
	<g>
		<path class="st0" d="M118.4,37.7V21.9c0-2-1-3.5-3.4-3.5c-2.3,0-3.9,1.5-4.7,2.5v16.7h-8.3V21.9c0-2-0.9-3.5-3.4-3.5
			c-2.3,0-3.8,1.5-4.7,2.5v16.7h-8.3V11.8H94V15c1.1-1.5,4.5-3.8,8.5-3.8c3.8,0,6.3,1.6,7.3,4.6c1.5-2.3,4.9-4.6,9-4.6
			c4.8,0,7.8,2.5,7.8,7.8v18.8H118.4z"/>
		<path class="st0" d="M148.6,37.7v-3c-2.1,2.5-4.8,3.6-7.7,3.6c-6.4,0-11.4-4.8-11.4-13.6c0-8.5,4.9-13.6,11.4-13.6
			c2.8,0,5.6,1.1,7.6,3.7v-3.1h8.3v25.9H148.6z M148.6,28.7v-7.9c-1.1-1.4-3.2-2.3-5-2.3c-3.3,0-5.7,2.4-5.7,6.2
			c0,3.9,2.4,6.3,5.7,6.3C145.4,31.1,147.6,30.1,148.6,28.7z"/>
		<path class="st0" d="M169.8,34.7v12.9h-8.3V11.8h8.3v3c2-2.5,4.7-3.6,7.7-3.6c6.5,0,11.4,4.8,11.4,13.6c0,8.8-4.9,13.6-11.4,13.6
			C174.6,38.4,172,37.2,169.8,34.7z M180.4,24.7c0-3.9-2.5-6.3-5.7-6.3c-1.8,0-3.9,1-4.9,2.4v7.9c1,1.3,3.2,2.4,4.9,2.4
			C178,31.1,180.4,28.6,180.4,24.7z"/>
		<path class="st0" d="M191.2,4.7c0-2.6,2.1-4.7,4.7-4.7c2.6,0,4.8,2.1,4.8,4.7c0,2.6-2.1,4.8-4.8,4.8
			C193.3,9.5,191.2,7.3,191.2,4.7z M191.8,37.7V11.8h8.3v25.9H191.8z"/>
		<path class="st0" d="M220.5,37.7l-4.9-7.8l-5.1,7.8h-9l8.9-13.3l-8.3-12.6h9.1l4.5,7l4.4-7h9.1l-8.3,12.6l8.8,13.3H220.5z"/>
		<path class="st0" d="M87.2,72.2V55.4h-3.9v-2.2h3.9v-6.4h2.6v6.4h4.8v2.2h-4.8v16.4c0,1.9,0.8,3.2,2.4,3.2c1.1,0,2.1-0.5,2.6-1.1
			l1,2c-0.9,0.9-2,1.5-4,1.5C88.7,77.3,87.2,75.4,87.2,72.2z"/>
		<path class="st0" d="M97.6,64.9c0-6.8,4.8-12.3,11.3-12.3c7.2,0,11.1,5.7,11.1,12.5v0.7h-19.7c0.2,5.1,3.7,9.4,9.2,9.4
			c3,0,5.7-1.1,7.7-3.3l1.3,1.7c-2.3,2.4-5.3,3.8-9.2,3.8C102.5,77.3,97.6,72.2,97.6,64.9z M108.8,54.8c-5.6,0-8.3,4.9-8.5,9h17.1
			C117.4,59.8,114.7,54.8,108.8,54.8z"/>
		<path class="st0" d="M124,64.9c0-6.9,4.5-12.3,11.4-12.3c4.1,0,6.4,1.6,8.3,4l-1.8,1.6c-1.7-2.3-3.9-3.3-6.4-3.3
			c-5.5,0-8.9,4.4-8.9,10c0,5.7,3.4,10.1,8.9,10.1c2.6,0,4.7-1,6.4-3.3l1.8,1.6c-1.9,2.4-4.2,4-8.3,4C128.5,77.3,124,71.8,124,64.9z
			"/>
		<path class="st0" d="M164.1,76.7v-16c0-4.5-2.3-5.8-5.7-5.8c-3,0-6.1,1.9-7.7,4v17.8h-2.5V44.2h2.5v12.5c1.7-2,5.1-4.1,8.5-4.1
			c4.8,0,7.4,2.2,7.4,7.6v16.6H164.1z"/>
		<path class="st0" d="M189.2,76.7V60.8c0-4.5-2.3-5.9-5.7-5.9c-3,0-6.1,1.9-7.7,4v17.8h-2.5V53.2h2.5v3.6c1.7-2,5.1-4.1,8.5-4.1
			c4.8,0,7.4,2.3,7.4,7.7v16.5H189.2z"/>
		<path class="st0" d="M197.1,64.9c0-6.9,4.4-12.3,11.3-12.3c7,0,11.4,5.5,11.4,12.3c0,6.9-4.4,12.4-11.4,12.4
			C201.5,77.3,197.1,71.8,197.1,64.9z M217,64.9c0-5.2-3.1-10-8.6-10c-5.5,0-8.6,4.8-8.6,10c0,5.3,3.1,10.1,8.6,10.1
			C213.9,75,217,70.2,217,64.9z"/>
		<path class="st0" d="M225,72.2v-28h2.5v27.6c0,1.9,0.8,3.2,2.4,3.2c1.1,0,2.1-0.5,2.6-1.1l1,2c-0.9,0.9-2,1.5-4,1.5
			C226.6,77.3,225,75.4,225,72.2z"/>
		<path class="st0" d="M235,64.9c0-6.9,4.4-12.3,11.3-12.3c7,0,11.4,5.5,11.4,12.3c0,6.9-4.4,12.4-11.4,12.4
			C239.4,77.3,235,71.8,235,64.9z M254.9,64.9c0-5.2-3.1-10-8.6-10c-5.5,0-8.6,4.8-8.6,10c0,5.3,3.1,10.1,8.6,10.1
			C251.8,75,254.9,70.2,254.9,64.9z"/>
		<path class="st0" d="M263,82.7l1.5-2c2,2.4,4.3,3.3,7.8,3.3c4.2,0,8-2.1,8-7.5v-3.8c-1.7,2.4-4.7,4.4-8.2,4.4
			c-6.2,0-10.5-4.7-10.5-12.3c0-7.5,4.2-12.3,10.5-12.3c3.4,0,6.3,1.7,8.2,4.4v-3.8h2.6v23.3c0,7.2-4.9,9.7-10.6,9.7
			C268.3,86.3,265.8,85.5,263,82.7z M280.3,70.6V59.2c-1.4-2.3-4.5-4.3-7.7-4.3c-5.2,0-8.2,4.3-8.2,10c0,5.7,3,10,8.2,10
			C275.8,74.9,278.9,72.9,280.3,70.6z"/>
		<path class="st0" d="M288.8,47.5c0-1.1,0.9-1.9,1.9-1.9c1.1,0,2,0.8,2,1.9c0,1.1-0.9,2-2,2C289.8,49.5,288.8,48.6,288.8,47.5z
			 M289.5,76.7V53.2h2.5v23.5H289.5z"/>
		<path class="st0" d="M297.4,64.9c0-6.8,4.8-12.3,11.3-12.3c7.2,0,11.1,5.7,11.1,12.5v0.7h-19.7c0.2,5.1,3.7,9.4,9.2,9.4
			c3,0,5.7-1.1,7.7-3.3l1.3,1.7c-2.3,2.4-5.3,3.8-9.2,3.8C302.3,77.3,297.4,72.2,297.4,64.9z M308.7,54.8c-5.6,0-8.3,4.9-8.5,9h17.1
			C317.2,59.8,314.6,54.8,308.7,54.8z"/>
		<path class="st0" d="M323.1,73.6l1.5-1.9c1.5,1.9,4.3,3.5,7.6,3.5c3.9,0,6.3-2,6.3-4.8c0-6.4-14.9-2.8-14.9-11.3
			c0-3.6,3.1-6.5,8.4-6.5c4,0,6.7,1.6,8.4,3.5l-1.4,1.8c-1.4-1.9-3.9-3.1-7-3.1c-3.7,0-5.8,1.9-5.8,4.3c0,5.9,14.8,2.3,14.8,11.4
			c0,3.8-2.9,6.9-8.8,6.9C328.4,77.3,325.5,76.2,323.1,73.6z"/>
	</g>
	<g>
		<path class="st1" d="M36,7.8c-19.9,0-36,16.1-36,36c0,19.9,16.1,36,36,36c19.9,0,36-16.1,36-36C71.9,23.9,55.8,7.8,36,7.8z
			 M42.2,54l-9.3,16.6L22.3,22.4l38.9,30.5L42.2,54z"/>
		<g>
			<path class="st1" d="M8.8,101h1.1l6,14.1l6-14.1H23l-6.5,15.2h-1.1L8.8,101z"/>
			<path class="st1" d="M25.6,97.5c0-0.5,0.4-0.9,0.9-0.9c0.5,0,0.9,0.4,0.9,0.9c0,0.5-0.4,0.9-0.9,0.9C26.1,98.4,25.6,98,25.6,97.5
				z M26.1,101H27v15.2h-0.9V101z"/>
			<path class="st1" d="M38.4,100.7c4.7,0,7.1,3.8,7.1,8v0.3H32.3c0.1,3.7,2.5,6.9,6.4,6.9c2.1,0,3.9-0.8,5.3-2.3l0.6,0.6
				c-1.5,1.6-3.3,2.6-5.9,2.6c-4.4,0-7.5-3.4-7.5-8C31.2,104.2,34.3,100.7,38.4,100.7z M32.3,108.1h12.2c0-2.9-1.9-6.6-6.1-6.6
				C34.5,101.5,32.4,105.1,32.3,108.1z"/>
			<path class="st1" d="M57.9,102.4l-4.6,13.8h-0.8L47.5,101h1l4.4,13.8l4.6-13.8h0.8l4.6,13.8l4.4-13.8h1l-5.1,15.2h-0.8
				L57.9,102.4z"/>
			<path class="st1" d="M79,113.6v-11.7h-2.5V101H79v-4.2h0.9v4.2H83v0.9h-3.1v11.7c0,1.3,0.5,2.2,1.6,2.2c0.8,0,1.4-0.4,1.8-0.8
				l0.6,0.7c-0.6,0.6-1.2,0.9-2.4,0.9C79.8,116.7,79,115.5,79,113.6z"/>
			<path class="st1" d="M97.1,105.6c0-3.2-1.6-4.1-3.9-4.1c-2.1,0-4.3,1.4-5.4,2.9v11.9h-0.9V95.2h0.9v8.2c1.1-1.4,3.4-2.8,5.5-2.8
				c3,0,4.8,1.3,4.8,4.9v10.7h-0.9V105.6z"/>
			<path class="st1" d="M109.3,100.7c4.7,0,7.1,3.8,7.1,8v0.3h-13.2c0.1,3.7,2.5,6.9,6.4,6.9c2.1,0,3.9-0.8,5.3-2.3l0.6,0.6
				c-1.5,1.6-3.3,2.6-5.9,2.6c-4.4,0-7.5-3.4-7.5-8C102.2,104.2,105.2,100.7,109.3,100.7z M103.2,108.1h12.2c0-2.9-1.9-6.6-6.1-6.6
				C105.4,101.5,103.3,105.1,103.2,108.1z"/>
			<path class="st1" d="M136.3,102.4l-4.6,13.8h-0.8l-5.1-15.2h1l4.4,13.8l4.6-13.8h0.8l4.6,13.8l4.4-13.8h1l-5.1,15.2h-0.8
				L136.3,102.4z"/>
			<path class="st1" d="M149,108.6c0-4.5,2.8-8,7.1-8c4.3,0,7.1,3.5,7.1,8c0,4.5-2.8,8-7.1,8C151.8,116.7,149,113.1,149,108.6z
				 M162.1,108.6c0-3.7-2.1-7.1-6.1-7.1c-3.9,0-6.1,3.4-6.1,7.1c0,3.7,2.2,7.2,6.1,7.2C160,115.8,162.1,112.4,162.1,108.6z"/>
			<path class="st1" d="M167.7,101h0.9v2.8c1.4-1.8,3-3.1,5.2-3.1v1.1c-0.3,0-0.5,0-0.8,0c-1.6,0-3.8,1.6-4.5,3v11.4h-0.9V101z"/>
			<path class="st1" d="M177,95.2h0.9v21.1H177V95.2z"/>
			<path class="st1" d="M195.2,113.7c-1,1.6-3.1,2.9-5.5,2.9c-4.1,0-6.8-3.2-6.8-8c0-4.8,2.7-8,6.8-8c2.3,0,4.3,1.2,5.5,3v-8.4h0.9
				v21.1h-0.9V113.7z M195.2,104.6c-0.9-1.6-3.1-3.1-5.5-3.1c-3.7,0-5.8,3.2-5.8,7.2c0,4,2.1,7.1,5.8,7.1c2.4,0,4.5-1.4,5.5-3V104.6
				z"/>
			<path class="st1" d="M220.6,113.7c-1,1.6-3.1,2.9-5.5,2.9c-4.1,0-6.8-3.2-6.8-8c0-4.8,2.7-8,6.8-8c2.3,0,4.3,1.2,5.5,3v-8.4h0.9
				v21.1h-0.9V113.7z M220.6,104.6c-0.9-1.6-3.1-3.1-5.5-3.1c-3.7,0-5.8,3.2-5.8,7.2c0,4,2.1,7.1,5.8,7.1c2.4,0,4.5-1.4,5.5-3V104.6
				z"/>
			<path class="st1" d="M226.6,97.5c0-0.5,0.4-0.9,0.9-0.9c0.5,0,0.9,0.4,0.9,0.9c0,0.5-0.4,0.9-0.9,0.9
				C227,98.4,226.6,98,226.6,97.5z M227,101h0.9v15.2H227V101z"/>
			<path class="st1" d="M234.7,101.9h-2.5V101h2.5v-1.6c0-2.8,1.4-4.5,3.8-4.5c0.7,0,1.3,0.1,1.8,0.4l-0.4,0.8
				c-0.4-0.2-0.8-0.4-1.4-0.4c-1.9,0-2.9,1.4-2.9,3.7v1.6h3.1v0.9h-3.1v14.4h-0.9V101.9z M242.5,101.9H240V101h2.5v-1.6
				c0-2.8,1.4-4.5,3.8-4.5c0.7,0,1.3,0.1,1.8,0.4l-0.4,0.8c-0.4-0.2-0.8-0.4-1.4-0.4c-1.9,0-2.9,1.4-2.9,3.7v1.6h3.1v0.9h-3.1v14.4
				h-0.9V101.9z"/>
			<path class="st1" d="M256.2,100.7c4.7,0,7.1,3.8,7.1,8v0.3h-13.2c0.1,3.7,2.5,6.9,6.4,6.9c2.1,0,3.9-0.8,5.3-2.3l0.6,0.6
				c-1.5,1.6-3.3,2.6-5.9,2.6c-4.4,0-7.5-3.4-7.5-8C249.1,104.2,252.1,100.7,256.2,100.7z M250.1,108.1h12.2c0-2.9-1.9-6.6-6.1-6.6
				C252.3,101.5,250.2,105.1,250.1,108.1z"/>
			<path class="st1" d="M267.7,101h0.9v2.8c1.4-1.8,3-3.1,5.2-3.1v1.1c-0.3,0-0.5,0-0.8,0c-1.6,0-3.8,1.6-4.5,3v11.4h-0.9V101z"/>
			<path class="st1" d="M283.2,100.7c4.7,0,7.1,3.8,7.1,8v0.3h-13.2c0.1,3.7,2.5,6.9,6.4,6.9c2.1,0,3.9-0.8,5.3-2.3l0.6,0.6
				c-1.5,1.6-3.3,2.6-5.9,2.6c-4.4,0-7.5-3.4-7.5-8C276,104.2,279.1,100.7,283.2,100.7z M277.1,108.1h12.2c0-2.9-1.9-6.6-6.1-6.6
				C279.3,101.5,277.2,105.1,277.1,108.1z"/>
			<path class="st1" d="M304.9,105.6c0-3.2-1.6-4.1-3.9-4.1c-2.1,0-4.3,1.4-5.4,2.9v11.9h-0.9V101h0.9v2.4c1.1-1.4,3.4-2.8,5.5-2.8
				c3,0,4.8,1.4,4.8,5v10.6h-0.9V105.6z"/>
			<path class="st1" d="M312.5,113.6v-11.7h-2.5V101h2.5v-4.2h0.9v4.2h3.1v0.9h-3.1v11.7c0,1.3,0.5,2.2,1.6,2.2
				c0.8,0,1.4-0.4,1.8-0.8l0.6,0.7c-0.6,0.6-1.2,0.9-2.4,0.9C313.3,116.7,312.5,115.5,312.5,113.6z"/>
			<path class="st1" d="M321.3,95.2h0.9v21.1h-0.9V95.2z"/>
			<path class="st1" d="M329.2,121.6c1,0,1.7-0.4,2.4-2.1l1.4-3.2l-6.5-15.3h1.1l6,14.1l6-14.1h1.1l-8.1,18.8
				c-0.7,1.6-1.8,2.6-3.3,2.6c-0.5,0-1.1-0.1-1.5-0.2l0.2-0.9C328.2,121.5,328.8,121.6,329.2,121.6z"/>
		</g>
	</g>
</g>
</svg>
